<svg width="36" height="28" viewBox="0 0 36 28" fill="none" xmlns="http://www.w3.org/2000/svg">
<path d="M18 14C18.5523 14 19 13.5523 19 13C19 12.4477 18.5523 12 18 12C17.4477 12 17 12.4477 17 13C17 13.5523 17.4477 14 18 14Z" fill="#D6DDEB"/>
<path d="M22 14C22.5523 14 23 13.5523 23 13C23 12.4477 22.5523 12 22 12C21.4477 12 21 12.4477 21 13C21 13.5523 21.4477 14 22 14Z" fill="#D6DDEB"/>
<path d="M14 14C14.5523 14 15 13.5523 15 13C15 12.4477 14.5523 12 14 12C13.4477 12 13 12.4477 13 13C13 13.5523 13.4477 14 14 14Z" fill="#D6DDEB"/>
<path d="M25 5H11C10.2044 5 9.44129 5.31607 8.87868 5.87868C8.31607 6.44129 8 7.20435 8 8V23C8.00031 23.1772 8.04769 23.3511 8.1373 23.504C8.22691 23.6569 8.35553 23.7832 8.51 23.87C8.65946 23.9547 8.82821 23.9995 9 24C9.17948 23.9999 9.35564 23.9516 9.51 23.86L14 21.14C14.166 21.0412 14.357 20.9926 14.55 21H25C25.7956 21 26.5587 20.6839 27.1213 20.1213C27.6839 19.5587 28 18.7956 28 18V8C28 7.20435 27.6839 6.44129 27.1213 5.87868C26.5587 5.31607 25.7956 5 25 5ZM26 18C26 18.2652 25.8946 18.5196 25.7071 18.7071C25.5196 18.8946 25.2652 19 25 19H14.55C14.0038 18.9996 13.4679 19.1482 13 19.43L10 21.23V8C10 7.73478 10.1054 7.48043 10.2929 7.29289C10.4804 7.10536 10.7348 7 11 7H25C25.2652 7 25.5196 7.10536 25.7071 7.29289C25.8946 7.48043 26 7.73478 26 8V18Z" fill="#D6DDEB"/>
</svg>
