<svg width="30" height="28" viewBox="0 0 30 28" fill="none" xmlns="http://www.w3.org/2000/svg">
<path d="M29.8649 5.68862C29.1676 4.96753 28.43 4.29256 27.6563 3.66713C25.3881 1.88804 22.76 0.706119 19.9854 0.217807C15.8138 -0.495477 11.5458 0.561667 8.27529 3.11723C7.08649 4.04149 6.08872 5.21871 5.34435 6.57509C4.60019 7.93124 4.1256 9.43752 3.95026 10.9991C3.58217 14.2961 4.40938 17.6187 6.26138 20.2825C4.39078 20.9308 2.1868 21.0569 0.594607 20.5813C0.390575 20.5206 0.173777 20.6136 0.0655898 20.8087C-0.0423886 21.0036 -0.0149762 21.252 0.132554 21.4146C1.04975 22.3757 2.04773 23.2439 3.11369 24.0087C5.15733 25.4431 7.45383 26.4135 9.86154 26.8606C14.404 27.6825 19.5296 26.3579 22.912 22.9123C24.2963 21.5073 25.3161 19.7417 25.8717 17.7881C26.427 15.8345 26.4992 13.7599 26.0809 11.7678C25.7067 9.95684 24.9869 8.24829 23.9667 6.74918C25.7835 6.17055 27.8959 6.07357 29.4053 6.52427C29.6097 6.58542 29.8272 6.49179 29.9351 6.29578C30.0429 6.09999 30.0139 5.85058 29.8649 5.68862Z" fill="#898989" fill-opacity="0.8"/>
</svg>
