<svg width="23" height="20" viewBox="0 0 23 20" fill="none" xmlns="http://www.w3.org/2000/svg">
<path fill-rule="evenodd" clip-rule="evenodd" d="M21.2033 2.74602C21.7964 3.20516 22.3619 3.70066 22.8965 4.23002C23.0107 4.34891 23.033 4.53201 22.9504 4.67574C22.8676 4.81963 22.7009 4.88837 22.5441 4.84348C21.3869 4.51262 19.7675 4.58381 18.3746 5.00858C19.1567 6.1091 19.7086 7.36336 19.9954 8.69276C20.3162 10.1552 20.2608 11.6782 19.835 13.1123C19.4091 14.5465 18.6273 15.8427 17.566 16.8741C14.9727 19.4035 11.0431 20.3759 7.56054 19.7725C5.71462 19.4443 3.95397 18.7319 2.38717 17.6789C1.56993 17.1175 0.80481 16.4801 0.101625 15.7746C-0.0114818 15.6553 -0.0324981 15.4729 0.0502857 15.3298C0.13323 15.1866 0.299442 15.1183 0.455867 15.1629C1.67655 15.512 3.36628 15.4194 4.80041 14.9435C3.38054 12.988 2.74634 10.5489 3.02855 8.12852C3.16297 6.98212 3.52682 5.87634 4.09735 4.88078C4.66804 3.88506 5.433 3.02085 6.34441 2.34234C8.85183 0.466279 12.124 -0.309779 15.3222 0.213849C17.4494 0.572323 19.4643 1.43998 21.2033 2.74602ZM11.5 12.8318C13.1467 12.8318 14.4815 11.4969 14.4815 9.85029C14.4815 8.20366 13.1467 6.8688 11.5 6.8688C9.85341 6.8688 8.51855 8.20366 8.51855 9.85029C8.51855 11.4969 9.85341 12.8318 11.5 12.8318Z" fill="#F9FCFE"/>
</svg>
