<svg width="6" height="10" viewBox="0 0 6 10" fill="none" xmlns="http://www.w3.org/2000/svg">
<path d="M1.69738 4.64748L1.02847 3.90413L1.02847 3.90413L1.69738 4.64748ZM5.57773 2.50099C5.98827 2.13156 6.0216 1.49927 5.65217 1.08873C5.28275 0.678196 4.65046 0.644867 4.23992 1.01429L5.57773 2.50099ZM1.70798 5.4001L2.35569 4.63821L2.35569 4.63821L1.70798 5.4001ZM4.26111 8.88316C4.68189 9.24088 5.31299 9.18977 5.67071 8.76899C6.02843 8.34821 5.97731 7.71711 5.55654 7.35939L4.26111 8.88316ZM2.36629 5.39083L5.57773 2.50099L4.23992 1.01429L1.02847 3.90413L2.36629 5.39083ZM1.06026 6.16198L4.26111 8.88316L5.55654 7.35939L2.35569 4.63821L1.06026 6.16198ZM1.02847 3.90413C0.353704 4.51133 0.368667 5.57402 1.06026 6.16198L2.35569 4.63821C2.58622 4.8342 2.59121 5.18843 2.36629 5.39083L1.02847 3.90413Z" fill="#F9FCFE"/>
</svg>
