<svg width="29" height="30" viewBox="0 0 29 30" fill="none" xmlns="http://www.w3.org/2000/svg">
<path fill-rule="evenodd" clip-rule="evenodd" d="M6.81265 13.0001H22.1874C22.6361 13.0001 23 13.4559 23 13.8256V16.1746C23 16.6304 22.6361 17.0001 22.1874 17.0001H6.81265C6.36393 17.0001 6 16.5443 6 16.1746V13.8256C6 13.3698 6.36393 13.0001 6.81265 13.0001Z" fill="#F9FCFE"/>
<path fill-rule="evenodd" clip-rule="evenodd" d="M16.5 7.31265L16.5 22.6874C16.5 23.1361 16.0442 23.5 15.6745 23.5L13.3255 23.5C12.8697 23.5 12.5 23.1361 12.5 22.6874L12.5 7.31265C12.5 6.86393 12.9558 6.5 13.3255 6.5L15.6745 6.5C16.1303 6.5 16.5 6.86393 16.5 7.31265Z" fill="#F9FCFE"/>
</svg>
