<svg width="6" height="9" viewBox="0 0 6 9" fill="none" xmlns="http://www.w3.org/2000/svg">
<path d="M4.30262 4.59507L4.97153 5.33842L4.97153 5.33842L4.30262 4.59507ZM0.42227 6.74157C0.0117304 7.11099 -0.0215982 7.74328 0.347828 8.15382C0.717255 8.56436 1.34954 8.59769 1.76008 8.22826L0.42227 6.74157ZM4.29202 3.84246L3.64431 4.60434L3.64431 4.60434L4.29202 3.84246ZM1.73889 0.359391C1.31811 0.00166997 0.687011 0.0527871 0.32929 0.473565C-0.0284314 0.894342 0.0226855 1.52544 0.443463 1.88316L1.73889 0.359391ZM3.63371 3.85173L0.42227 6.74157L1.76008 8.22826L4.97153 5.33842L3.63371 3.85173ZM4.93974 3.08057L1.73889 0.359391L0.443463 1.88316L3.64431 4.60434L4.93974 3.08057ZM4.97153 5.33842C5.6463 4.73122 5.63133 3.66853 4.93974 3.08057L3.64431 4.60434C3.41378 4.40836 3.40879 4.05413 3.63371 3.85173L4.97153 5.33842Z" fill="#F9FCFE"/>
</svg>
