<svg width="8" height="11" viewBox="0 0 8 11" fill="none" xmlns="http://www.w3.org/2000/svg">
<path d="M3.99999 10.6213C3.27824 10.0229 2.60925 9.36681 2 8.65999C1.08571 7.59853 5.02224e-07 6.01773 5.02224e-07 4.51136C-0.00039601 3.74204 0.234005 2.9899 0.673538 2.35013C1.11307 1.71035 1.73798 1.2117 2.46918 0.917279C3.20037 0.622858 4.00499 0.545903 4.7812 0.696152C5.55741 0.846401 6.27031 1.2171 6.8297 1.76134C7.20213 2.12174 7.49732 2.55037 7.6982 3.02241C7.89908 3.49445 8.00165 4.00053 7.99998 4.51136C7.99998 6.01773 6.91427 7.59853 5.99999 8.65999C5.39073 9.3668 4.72174 10.0229 3.99999 10.6213ZM3.99999 2.84502C3.54533 2.84502 3.1093 3.02058 2.78781 3.33308C2.46632 3.64558 2.28571 4.06942 2.28571 4.51136C2.28571 4.9533 2.46632 5.37714 2.78781 5.68964C3.1093 6.00214 3.54533 6.1777 3.99999 6.1777C4.45465 6.1777 4.89068 6.00214 5.21217 5.68964C5.53366 5.37714 5.71427 4.9533 5.71427 4.51136C5.71427 4.06942 5.53366 3.64558 5.21217 3.33308C4.89068 3.02058 4.45465 2.84502 3.99999 2.84502Z" fill="#202020"/>
</svg>
