<svg width="35" height="35" viewBox="0 0 35 35" fill="none" xmlns="http://www.w3.org/2000/svg">
<rect width="35" height="35" fill="#0F2F80" fill-opacity="0.03"/>
<path d="M17.0402 0.000114155L21 0.000112486L0 21.0001V17.0403L17.0402 0.000114155Z" fill="#0F2F80" fill-opacity="0.06"/>
<path d="M7.94021 0.000114155H11.9L3.33786e-07 11.9001L0 7.94033L7.94021 0.000114155Z" fill="#0F2F80" fill-opacity="0.06"/>
<path d="M0 0.000114155L3.15 0L0 3.15V0.000114155Z" fill="#0F2F80" fill-opacity="0.06"/>
<path d="M0 26.1551L26.3519 0.000114155H30.3266L0 30.1001V26.1551Z" fill="#0F2F80" fill-opacity="0.06"/>
<path d="M3.50001 35.0001H0V34.5403L34.5402 0.000114155H35V3.50012L3.50001 35.0001Z" fill="#0F2F80" fill-opacity="0.06"/>
<path d="M11.9 35.0001H7.94021L35 7.94033V11.9001L11.9 35.0001Z" fill="#0F2F80" fill-opacity="0.06"/>
<path d="M21.5398 35.0001H17.6186L35 17.2711V21.2707L21.5398 35.0001Z" fill="#0F2F80" fill-opacity="0.06"/>
<path d="M30.1 35.0001H26.1402L35 26.1403V30.1001L30.1 35.0001Z" fill="#0F2F80" fill-opacity="0.06"/>
</svg>
