<svg width="30" height="28" viewBox="0 0 30 28" fill="none" xmlns="http://www.w3.org/2000/svg">
<path fill-rule="evenodd" clip-rule="evenodd" d="M27.6563 3.66713C28.43 4.29256 29.1676 4.96753 29.8649 5.68862C30.0139 5.85058 30.0429 6.09999 29.9351 6.29578C29.8272 6.49179 29.6097 6.58542 29.4053 6.52427C27.8959 6.07357 25.7835 6.17055 23.9667 6.74918C24.9869 8.24829 25.7067 9.95684 26.0809 11.7678C26.4992 13.7599 26.427 15.8345 25.8717 17.7881C25.3161 19.7417 24.2963 21.5073 22.912 22.9123C19.5296 26.3579 14.404 27.6825 9.86154 26.8606C7.45383 26.4135 5.15733 25.4431 3.11369 24.0087C2.04773 23.2439 1.04975 22.3757 0.132554 21.4146C-0.0149762 21.252 -0.0423886 21.0036 0.0655898 20.8087C0.173777 20.6136 0.390575 20.5206 0.594607 20.5813C2.1868 21.0569 4.39078 20.9308 6.26138 20.2825C4.40938 17.6187 3.58217 14.2961 3.95026 10.9991C4.1256 9.43752 4.60019 7.93124 5.34435 6.57509C6.08872 5.21871 7.08649 4.04149 8.27529 3.11723C11.5458 0.561667 15.8138 -0.495477 19.9854 0.217807C22.76 0.706119 25.3881 1.88804 27.6563 3.66713ZM14.9997 19.6214C18.3537 19.6214 21.0726 16.9025 21.0726 13.5485C21.0726 10.1945 18.3537 7.47559 14.9997 7.47559C11.6457 7.47559 8.92676 10.1945 8.92676 13.5485C8.92676 16.9025 11.6457 19.6214 14.9997 19.6214Z" fill="#898989" fill-opacity="0.8"/>
</svg>
