<svg width="16" height="20" viewBox="0 0 16 20" fill="none" xmlns="http://www.w3.org/2000/svg">
<g clip-path="url(#clip0_1273_14872)">
<path d="M14.8282 7.49835C14.2418 6.66314 13.5675 5.89893 12.8178 5.22002L12.8018 5.20585C12.755 5.15112 12.6915 5.11486 12.622 5.10318C12.5525 5.09149 12.4812 5.10509 12.4202 5.14169L12.4218 5.14085C12.3683 5.16884 12.3254 5.21485 12.3001 5.27143C12.2749 5.32801 12.2687 5.39183 12.2826 5.45252V5.45085L12.2714 5.44335C12.6706 6.20919 12.9082 7.12002 12.9146 8.08752V8.08919C12.921 8.68085 12.885 9.09502 12.8842 9.10252C12.8714 9.18332 12.8559 9.26365 12.8378 9.34335C12.7906 9.58419 12.4754 10.2942 12.029 10.0992C11.5826 9.90419 11.5554 9.15835 11.5554 9.15835H11.549C11.3988 6.14519 10.1146 3.31513 7.97465 1.28168L7.96585 1.27335L7.96185 1.26918L7.95785 1.26502C7.55154 0.890724 7.11196 0.557556 6.64505 0.270018L6.60505 0.247518C6.56501 0.227363 6.52626 0.204538 6.48905 0.179185L6.49385 0.181685C6.43695 0.144291 6.37698 0.112221 6.31465 0.0858515L6.30585 0.0825182C6.26585 0.0608515 6.22425 0.0441848 6.18105 0.0241848C6.13884 0.00273105 6.09279 -0.00929122 6.04586 -0.01111C5.99893 -0.0129287 5.95216 -0.00450375 5.90854 0.0136239C5.86492 0.0317516 5.82542 0.0591813 5.79258 0.0941515C5.75974 0.129122 5.73428 0.17086 5.71785 0.216685L5.71705 0.219185C5.69381 0.549859 5.7476 0.881487 5.87385 1.18585L5.86905 1.17252C6.39625 2.56002 6.70265 4.16669 6.70265 5.84835C6.70265 6.85002 6.59385 7.82502 6.38905 8.76169L6.40505 8.67419C6.3565 8.87293 6.26266 9.05654 6.13147 9.20945C6.00027 9.36235 5.83561 9.48004 5.65145 9.55252L5.64345 9.55502C5.4184 9.57717 5.19268 9.52063 5.0019 9.39434C4.81113 9.26804 4.66615 9.07916 4.58985 8.85752L4.58745 8.85002C4.56665 8.79002 4.54105 8.73419 4.52505 8.66919V8.65752C4.13945 7.22585 4.61225 5.08169 4.94265 3.88668C5.16425 3.00252 4.12265 3.88668 4.12265 3.88668H4.11865C3.91385 4.06668 3.69305 4.27002 3.46105 4.49502V4.48668C3.16745 4.76669 2.77945 5.15502 2.38025 5.59918C2.16425 5.84002 -0.714952 9.14002 0.182648 13.6475C1.07305 17.3192 4.21625 19.9934 7.95865 19.9934C12.0234 19.9934 15.381 16.8384 15.8978 12.7517L15.9018 12.7092C15.921 12.5434 15.9386 12.3784 15.9466 12.2142C15.9506 12.1625 15.9514 12.1084 15.9538 12.0542C15.9962 10.4405 15.5996 8.84727 14.8098 7.45835L14.8306 7.49835H14.8282Z" fill="#F9FCFE"/>
</g>
<defs>
<clipPath id="clip0_1273_14872">
<rect width="16" height="20" fill="white"/>
</clipPath>
</defs>
</svg>
